<svg width="200" height="151" viewBox="0 0 200 151" fill="none" xmlns="http://www.w3.org/2000/svg">
<path d="M75.5995 100.791C76.0989 100.284 76.2458 99.5368 75.9814 98.8961C75.6876 98.2554 75.0413 97.8016 74.2775 97.7482C70.0473 97.4546 65.9933 96.4402 62.1744 94.6783C59.2074 93.3169 56.8859 91.8906 54.1252 89.4195C47.1913 83.2128 44.4604 76.4191 44.4604 68.4908C44.4604 67.5031 44.5191 66.5154 44.6366 65.501C44.6954 65.0205 44.7541 64.5133 44.8422 64.0328C44.8716 63.8192 44.9304 63.579 44.9891 63.3654C45.0773 62.9917 45.1654 62.6179 45.2241 62.2175C45.2829 61.5502 45.3416 60.8561 45.4004 60.1887C45.606 57.9731 45.7529 56.3447 45.8411 54.8765C45.8704 54.3693 45.8998 53.8621 45.9292 53.3816V53.3549L45.9586 52.9545C46.1642 51.2193 46.1936 49.671 46.1642 48.1227C46.2523 48.1227 46.3698 48.1227 46.458 48.1227C50.5707 48.1227 55.3884 49.1638 60.7937 51.246C60.2355 51.6731 59.7068 52.1269 59.2074 52.5807C54.5659 56.8519 52.0101 62.4845 52.0101 68.4641C52.0101 74.2835 54.4484 79.8093 58.8549 84.0271C62.1744 87.2038 66.3752 89.3928 70.9874 90.4072C72.8968 90.8343 74.8651 91.0478 76.8627 91.0478C83.2668 91.0478 89.3477 88.8322 93.9892 84.8547L94.3711 84.5343C94.5474 84.3742 94.753 84.1873 94.9293 84.0004C94.8411 84.1606 94.753 84.2941 94.6649 84.4275L94.6355 84.4542C93.9011 85.6822 93.2842 86.75 92.9904 87.6042C92.7554 88.2716 92.9316 89.019 93.5192 89.4995L98.3663 93.6906C98.7482 94.011 99.2182 94.1978 99.747 94.1978C100.011 94.1978 100.276 94.1444 100.54 94.0376C100.805 93.9309 101.069 93.7707 101.275 93.5571L105.593 89.4195C106.092 88.939 106.269 88.2449 106.034 87.6042C105.652 86.5097 104.947 85.1483 104.3 83.8136C104.271 83.7335 104.242 83.6801 104.183 83.6C104.477 83.8937 104.77 84.1873 105.094 84.4809L105.505 84.828C110.146 88.8322 116.198 91.0211 122.602 91.0211C124.717 91.0211 126.803 90.7809 128.8 90.3004C131.356 89.7131 133.736 88.7521 135.968 87.4707C136.673 90.6741 139.817 93.1033 143.547 93.1033C145.457 93.1033 147.308 92.4627 148.718 91.2881L148.747 91.2614C148.982 91.0478 149.246 90.8076 149.511 90.5139C155.533 84.4542 158.853 76.606 158.853 68.4374C158.853 65.8213 158.5 63.1785 157.824 60.6425L157.795 60.2955L157.766 59.8684C157.56 57.6527 157.443 56.051 157.325 54.6362C157.296 54.129 157.266 53.6218 157.237 53.168L157.208 52.7943C157.119 51.1392 157.09 49.671 157.119 48.2028C157.149 46.788 157.237 45.2931 157.384 43.4778C157.531 41.8227 157.707 40.0342 157.971 37.6851C158.03 37.1512 157.824 36.6173 157.413 36.2435L157.384 36.2169C157.002 35.8698 156.502 35.683 155.974 35.683C155.886 35.683 155.827 35.683 155.739 35.683C151.068 36.1368 147.572 36.377 144.37 36.5105C144.252 36.5105 144.135 36.5105 144.076 36.5105C143.401 36.5372 142.695 36.5639 141.902 36.5639H141.844C141.168 36.5639 140.551 36.5906 139.875 36.5906C136.35 36.5639 132.972 36.4037 129.241 36.0834C128.125 35.8965 127.038 35.763 126.01 35.6563C124.835 35.5495 123.689 35.4961 122.573 35.4961C121.427 35.4961 120.311 35.5495 119.136 35.6563C112.232 36.2435 105.681 38.6194 100.188 42.5435C100.041 42.6503 99.8939 42.7571 99.7176 42.8905L99.6882 42.8638C94.1361 38.7795 87.4382 36.2969 80.3291 35.683C79.154 35.5762 78.0377 35.5228 76.8921 35.5228C75.7464 35.5228 74.6301 35.5762 73.4256 35.683C72.2506 35.7897 71.2224 35.9232 70.2236 36.0834C66.3752 36.4304 62.8207 36.5906 59.6186 36.5906H59.5305C58.7961 36.5906 58.1204 36.5906 57.386 36.5639H57.3567C56.5929 36.5639 55.8878 36.5372 55.2122 36.5105C51.922 36.377 48.2206 36.1101 43.5791 35.6563C43.5203 35.6563 43.4322 35.6563 43.3734 35.6563C42.9034 35.6563 42.4334 35.8164 42.0809 36.1101C42.0515 36.1368 42.0221 36.1635 41.9927 36.1902C41.5521 36.5639 41.3464 37.0978 41.4052 37.6584C41.8752 42.063 42.1984 45.1596 42.2571 48.1761C42.2865 49.671 42.2571 51.1392 42.169 52.7676L42.1396 53.1413V53.1947C42.1102 53.6485 42.0809 54.129 42.0515 54.6362C41.934 56.3714 41.7577 58.4803 41.4639 61.6302C40.9352 63.8726 40.6708 66.1683 40.6708 68.4908C40.6708 76.8729 46.0426 87.444 50.3944 90.9144C54.7462 94.3847 56.3123 95.2541 61.285 97.3004C66.2577 99.3468 67.5313 99.2255 75.5995 100.791ZM152.419 48.1227C152.654 48.1227 152.889 48.1227 153.124 48.1227C153.095 49.671 153.124 51.2193 153.212 52.9278L153.242 53.3282V53.3816C153.271 53.8621 153.3 54.3426 153.33 54.8498C153.418 56.2379 153.535 57.626 153.653 58.7739C153.682 59.201 153.741 59.6281 153.77 60.0819L153.829 60.7226C153.829 60.8828 153.859 61.043 153.859 61.2031C153.859 61.4701 153.888 61.7103 153.917 61.9773C153.976 62.3243 154.064 62.6446 154.182 62.965C154.24 63.1251 154.27 63.2586 154.329 63.4188C154.71 64.887 154.887 66.5421 154.887 68.4641C154.887 75.7517 151.92 82.7191 146.544 88.1381C146.426 88.2716 146.25 88.4584 146.044 88.6186C145.339 89.1792 144.458 89.4995 143.547 89.4995C141.491 89.4995 139.817 87.9779 139.817 86.1093C139.817 85.3619 140.081 84.6411 140.58 84.0538C140.58 84.0538 140.58 84.0538 140.61 84.0271C140.639 84.0004 140.669 83.947 140.698 83.9203L140.727 83.8936L140.757 83.867L140.815 83.8136C140.874 83.7335 140.933 83.6801 140.992 83.6534C141.05 83.6 141.109 83.5466 141.168 83.4665C145.251 79.3288 147.513 73.9899 147.513 68.4374C147.513 62.4578 144.957 56.7985 140.316 52.554C139.758 52.0468 139.17 51.5396 138.553 51.0858C143.694 49.1371 148.395 48.1227 152.419 48.1227ZM128.213 68.2772C128.213 70.573 126.157 72.4416 123.63 72.4416C121.104 72.4416 119.047 70.573 119.047 68.2772C119.047 65.9815 121.104 64.1128 123.63 64.1128C126.157 64.1128 128.213 65.9815 128.213 68.2772ZM109.324 67.9569C109.324 68.0103 109.324 68.0637 109.324 68.1171C109.324 75.2979 115.728 81.1174 123.63 81.1174C131.532 81.1174 137.936 75.2979 137.936 68.1171C137.936 62.4044 133.883 57.5459 128.242 55.8108C130.24 54.743 132.267 53.7553 134.294 52.821C135.381 53.4883 136.409 54.2892 137.349 55.1434C141.227 58.7205 143.371 63.4455 143.371 68.4908C143.371 73.3759 141.315 78.0208 137.613 81.5712C134.411 84.6144 130.328 86.5898 125.804 87.2305C124.746 87.3907 123.63 87.4707 122.514 87.4707C117.138 87.4707 112.056 85.6288 108.207 82.3186L107.855 81.9983C105.975 80.3166 104.506 78.3411 103.448 76.1522C103.419 76.0988 103.419 76.0454 103.39 75.992C103.008 75.1645 102.655 74.2835 102.391 73.4026C103.83 72.1747 106.239 70.2526 109.324 67.9569ZM78.4784 64.5133C80.7698 64.5133 82.6205 66.195 82.6205 68.2772C82.6205 70.3594 80.7698 72.0412 78.4784 72.0412C76.187 72.0412 74.3363 70.3594 74.3363 68.2772C74.3657 66.195 76.2164 64.5133 78.4784 64.5133ZM72.5737 61.1764C72.8087 61.7904 72.4562 62.4578 71.7805 62.6713C69.6948 63.312 68.2847 65.1006 68.2847 67.1027C68.2847 67.7166 68.4022 68.3306 68.6666 68.8912C68.931 69.4785 68.6372 70.1726 67.9616 70.4128C67.8147 70.4662 67.6384 70.4929 67.4622 70.4929C66.9334 70.4929 66.4634 70.1992 66.2577 69.7721C65.8758 68.9179 65.6702 68.0103 65.6702 67.076C65.6702 64.0595 67.7853 61.39 70.8992 60.429C71.0461 60.3756 71.1636 60.3756 71.3105 60.3756C71.898 60.3756 72.3974 60.6959 72.5737 61.1764ZM71.6924 73.1891C71.6924 73.9899 70.9874 74.6306 70.1061 74.6306C69.2248 74.6306 68.5197 73.9899 68.5197 73.1891C68.5197 72.3882 69.2248 71.7475 70.1061 71.7475C70.9874 71.7208 71.6924 72.3882 71.6924 73.1891ZM64.877 52.9811C66.8746 53.8888 68.9604 54.9299 71.0755 56.0777C66.2871 58.507 63.2907 63.0718 63.2907 68.1437C63.2907 75.7518 70.1061 81.9449 78.4784 81.9449C82.2973 81.9449 85.94 80.6636 88.7308 78.3144C91.1103 76.339 92.726 73.723 93.3429 70.8933C94.8999 72.1213 96.1043 73.0823 96.8681 73.723C96.4568 75.0043 95.928 76.2323 95.223 77.4068C95.1936 77.4335 95.1936 77.4869 95.1643 77.5136C94.1948 79.142 92.961 80.6369 91.4922 81.9716L91.1397 82.2653C87.262 85.6021 82.1798 87.444 76.8039 87.444C75.8345 87.444 74.8357 87.3907 73.8663 87.2572C69.1954 86.6699 64.9945 84.6945 61.7044 81.5712C58.0029 78.0208 55.9466 73.3759 55.9466 68.4908C55.9466 63.4722 58.0911 58.7472 61.9688 55.1701C62.9088 54.3426 63.8489 53.6218 64.877 52.9811Z" fill="#363E4D"/>
<path d="M148.5 118.252L148.5 117.29L149.374 116.889C161.753 111.204 174.09 103.262 183.309 93.9484C192.544 84.6179 198.5 74.0694 198.5 63.1444C198.5 46.6255 187.701 31.248 169.822 19.9235C151.969 8.61472 127.256 1.50002 100 1.50002C72.7445 1.50002 48.0311 8.61471 30.1777 19.9235C12.2994 31.248 1.50003 46.6255 1.50002 63.1444C1.50002 79.6633 12.2994 95.0408 30.1777 106.365C48.0311 117.674 72.7445 124.789 100 124.789L111.25 124.789L111.893 124.789L112.336 125.254C120.23 133.541 137.672 146.784 167.681 148.672C165.794 147.604 163.679 146.238 161.56 144.536C155.082 139.329 148.5 130.901 148.5 118.252Z" stroke="#363E4D" stroke-width="3"/>
</svg>
