<svg width="67" height="93" viewBox="0 0 67 93" fill="none" xmlns="http://www.w3.org/2000/svg">
<path d="M62.7883 51.1118C62.7883 50.9355 62.7883 50.7446 62.7736 50.5831L62.7589 50.1424C62.7589 50.1424 62.7589 50.1424 62.7589 50.1277C62.7148 49.4521 62.6561 48.8206 62.5826 48.189C62.5533 47.9687 62.5239 47.7484 62.4798 47.484C62.4064 47.014 62.333 46.544 62.2302 46.0741C62.1127 45.4719 61.9658 44.8256 61.7748 44.1353C61.6573 43.6947 61.2608 43.401 60.8055 43.401H29.5803C29.0222 43.401 28.5815 43.8563 28.5815 44.3997V58.9989C28.5815 59.557 29.0368 59.9976 29.5803 59.9976H41.007C41.5651 59.9976 42.0057 59.5423 42.0057 58.9989V56.972C42.0057 56.8986 42.0645 56.8398 42.1379 56.8398H47.7632C47.9688 56.8398 48.145 56.928 48.2478 57.1042C48.3507 57.2658 48.38 57.4567 48.3066 57.633C48.1891 57.9561 48.0569 58.2645 47.91 58.5729C47.866 58.6904 47.8072 58.7786 47.7632 58.8814C47.7632 58.8814 47.7632 58.8814 47.7632 58.8961C47.7191 58.9842 47.675 59.0723 47.6163 59.1898L47.5575 59.2926C47.4841 59.4248 47.396 59.5864 47.3079 59.7626C47.1904 59.9829 47.0582 60.2032 46.9407 60.3942L46.926 60.4089C46.8379 60.5557 46.7497 60.6879 46.6469 60.8348C46.5147 61.011 46.3679 61.2313 46.2063 61.4517C46.2063 61.4517 46.2063 61.4663 46.1916 61.4663C46.1182 61.5692 46.0447 61.672 45.9419 61.7895L45.9272 61.8188C45.6776 62.142 45.4132 62.4357 45.1635 62.7295C44.9138 62.9938 44.7229 63.1994 44.532 63.3904C44.3263 63.596 44.1207 63.7869 43.871 64.0072L43.8563 64.0219C43.7829 64.0954 43.7095 64.1541 43.636 64.2129C43.6067 64.2276 43.5773 64.2569 43.5479 64.2716C43.4157 64.3891 43.2688 64.5066 43.1367 64.6094L43.1073 64.6241L42.652 64.9766C42.3142 65.2116 41.991 65.4319 41.6973 65.6082C41.5651 65.6963 41.4329 65.7697 41.3301 65.8285C41.3154 65.8432 41.2861 65.8578 41.2714 65.8578C41.1098 65.946 40.9482 66.0341 40.7867 66.1222C39.9495 66.5628 39.0389 66.9447 38.0989 67.2531L38.0695 67.2678C37.9374 67.3119 37.8052 67.3559 37.6436 67.3853H37.6289C37.4527 67.4441 37.247 67.5028 37.0121 67.5469H36.9974C36.9386 67.5616 36.8652 67.5763 36.7624 67.6056C36.7477 67.6056 36.7477 67.6056 36.733 67.6056C36.6742 67.6203 36.6155 67.635 36.5567 67.6497C36.5567 67.6497 36.5567 67.6497 36.5421 67.6497L36.2483 67.7084C36.1749 67.7231 36.0868 67.7378 35.9839 67.7525H35.9693C35.7489 67.7966 35.5874 67.8259 35.4258 67.8406C35.1321 67.8847 34.8677 67.9141 34.6033 67.9288C34.6033 67.9288 34.6033 67.9288 34.5886 67.9288C34.3537 67.9434 34.1187 67.9728 33.8837 67.9728C33.6487 67.9875 33.4137 67.9875 33.1787 67.9875C24.8363 67.9875 17.7864 61.481 17.0961 53.1827C17.052 52.7568 17.0373 52.3308 17.0373 51.9196V51.8462C17.0373 47.8512 18.5061 44.0031 21.1791 41.051C21.4288 40.7719 21.5023 40.3607 21.3701 40.0082C21.2232 39.6557 20.9001 39.406 20.5182 39.3766C18.4032 39.2151 16.3764 38.657 14.467 37.6876C12.9836 36.9386 11.6177 35.9692 10.4427 34.7942C7.32901 31.7246 5.6106 27.6415 5.6106 23.2794C5.6106 22.7359 5.63997 22.1925 5.69872 21.6344C5.7281 21.37 5.75747 21.091 5.80153 20.8266C5.81622 20.7091 5.8456 20.5769 5.87497 20.4594C5.91903 20.2538 5.96309 20.0482 5.99247 19.8278C6.02184 19.4607 6.05122 19.0788 6.08059 18.7116C6.1834 17.4926 6.25684 16.5966 6.3009 15.7888C6.31559 15.5098 6.33028 15.2307 6.34496 14.9663V14.9517L6.35965 14.7313C6.46246 13.7767 6.47715 12.9248 6.46246 12.0729C6.50652 12.0729 6.56527 12.0729 6.60934 12.0729C8.66556 12.0729 11.0743 12.6458 13.7767 13.7914C13.4977 14.0264 13.2333 14.276 12.9836 14.5257C10.663 16.8757 9.38524 19.9747 9.38524 23.2647C9.38524 26.4665 10.6043 29.5068 12.8074 31.8274C14.467 33.5752 16.5673 34.7795 18.8732 35.3376C19.8279 35.5726 20.812 35.6901 21.8107 35.6901C25.0125 35.6901 28.0528 34.4711 30.3734 32.2827L30.5643 32.1064C30.6525 32.0183 30.7553 31.9155 30.8434 31.8127C30.7993 31.9008 30.7553 31.9742 30.7112 32.0477L30.6965 32.0624C30.3293 32.738 30.0209 33.3255 29.874 33.7955C29.7565 34.1627 29.8446 34.5739 30.1384 34.8383L32.5618 37.1442C32.7527 37.3204 32.9877 37.4232 33.2521 37.4232C33.3843 37.4232 33.5165 37.3939 33.6487 37.3351C33.7808 37.2764 33.913 37.1882 34.0158 37.0707L36.1749 34.7942C36.4246 34.5298 36.5127 34.148 36.3952 33.7955C36.2043 33.1933 35.8518 32.4442 35.5286 31.7099C35.5139 31.6658 35.4993 31.6364 35.4699 31.5924C35.6168 31.7539 35.7636 31.9155 35.9252 32.0771L36.1308 32.268C38.4514 34.4711 41.477 35.6754 44.6788 35.6754C45.7363 35.6754 46.7791 35.5433 47.7778 35.2789C49.0556 34.9558 50.2453 34.427 51.3615 33.722C51.714 35.4845 53.2856 36.821 55.1509 36.821C56.1055 36.821 57.0308 36.4686 57.7358 35.8223L57.7505 35.8076C57.868 35.6901 58.0002 35.5579 58.1324 35.3964C61.1433 32.0624 62.803 27.7443 62.803 23.25C62.803 21.8106 62.6267 20.3566 62.2889 18.9613L62.2742 18.7704L62.2595 18.5354C62.1567 17.3163 62.098 16.4351 62.0392 15.6566C62.0245 15.3776 62.0098 15.0985 61.9952 14.8488L61.9805 14.6432C61.9364 13.7326 61.9217 12.9248 61.9364 12.117C61.9511 11.3386 61.9952 10.5161 62.0686 9.51736C62.142 8.60675 62.2302 7.6227 62.3623 6.33021C62.3917 6.03647 62.2889 5.74272 62.0833 5.5371L62.0686 5.52241C61.8777 5.33148 61.628 5.22867 61.3636 5.22867C61.3195 5.22867 61.2902 5.22867 61.2461 5.22867C58.9108 5.47835 57.163 5.61054 55.5621 5.68397C55.5034 5.68397 55.4446 5.68397 55.4152 5.68397C55.0774 5.69866 54.7249 5.71335 54.3284 5.71335H54.299C53.9612 5.71335 53.6528 5.72803 53.315 5.72803C51.5525 5.71335 49.8634 5.62522 47.9982 5.44897C47.44 5.34616 46.8966 5.27273 46.3825 5.21398C45.7951 5.15523 45.2223 5.12585 44.6641 5.12585C44.0913 5.12585 43.5332 5.15523 42.9457 5.21398C39.4942 5.5371 36.2189 6.84427 33.4724 9.0033C33.399 9.06205 33.3255 9.1208 33.2374 9.19424L33.2227 9.17955C30.4468 6.93239 27.0981 5.56647 23.5438 5.22867C22.9563 5.16992 22.3982 5.14054 21.8254 5.14054C21.2526 5.14054 20.6945 5.16992 20.0923 5.22867C19.5048 5.28741 18.9907 5.36085 18.4914 5.44897C16.5673 5.63991 14.7902 5.72803 13.1892 5.72803H13.1452C12.778 5.72803 12.4402 5.72803 12.073 5.71335H12.0583C11.6765 5.71335 11.324 5.69866 10.9862 5.68397C9.34117 5.61054 7.49057 5.46366 5.16998 5.21398C5.14061 5.21398 5.09654 5.21398 5.06717 5.21398C4.83217 5.21398 4.59718 5.3021 4.42093 5.46366C4.40624 5.47835 4.39155 5.49304 4.37687 5.50772C4.15656 5.71335 4.05374 6.00709 4.08312 6.31553C4.31812 8.73893 4.47968 10.4427 4.50905 12.1023C4.52374 12.9248 4.50905 13.7326 4.46499 14.6285L4.4503 14.8342V14.8635C4.43561 15.1132 4.42093 15.3776 4.40624 15.6566C4.34749 16.6113 4.25937 17.7716 4.11249 19.5047C3.84812 20.7385 3.71594 22.0016 3.71594 23.2794C3.71594 27.8912 5.43435 32.2533 8.57743 35.6167C5.34623 40.4488 3.67188 46.0447 3.67188 51.8315C3.67188 54.3871 3.995 56.928 4.65592 59.3807V59.3954C4.69999 59.5423 4.72936 59.7039 4.77342 59.8507C4.99373 60.6145 5.21404 61.3048 5.46373 61.951C5.68404 62.5532 5.91903 63.1554 6.1834 63.7429C7.15277 65.9313 8.3865 68.0169 9.85523 69.9115C11.3827 71.8943 13.1746 73.6862 15.1867 75.243C15.1867 75.243 15.2014 75.243 15.2014 75.2577L23.4704 81.1326L29.1543 85.1716L31.0343 86.5082L31.5631 86.8754C31.6365 86.9194 31.6806 86.9635 31.7246 86.9929C31.7393 87.0076 31.754 87.0222 31.7834 87.0369L32.6793 87.6685C32.8555 87.786 33.0465 87.8594 33.2521 87.8594C33.4577 87.8594 33.6633 87.8007 33.8396 87.6685L51.3175 75.243C51.3175 75.243 51.3322 75.243 51.3322 75.2283C53.3296 73.6862 55.1215 71.909 56.649 69.9115C58.1324 68.0022 59.3661 65.9166 60.3208 63.7429C60.5705 63.1701 60.8055 62.5826 61.0405 61.951C61.202 61.4957 61.3489 61.0845 61.4664 60.6879C61.9511 59.1458 62.3036 57.5448 62.5239 55.9439C62.7148 54.5927 62.8176 53.2121 62.8176 51.8315C62.8176 51.5965 62.8176 51.3615 62.803 51.1265L62.7883 51.1118ZM59.5864 12.0729C59.7039 12.0729 59.8214 12.0729 59.9389 12.0729C59.9242 12.9248 59.9389 13.7767 59.983 14.7167L59.9977 14.937V14.9663C60.0124 15.2307 60.0271 15.4951 60.0417 15.7741C60.0858 16.5379 60.1446 17.3016 60.2033 17.9332C60.218 18.1682 60.2474 18.4032 60.2621 18.6529L60.2914 19.0054C60.2914 19.0935 60.3061 19.1816 60.3061 19.2697C60.3061 19.4166 60.3208 19.5488 60.3355 19.6957C60.3649 19.8866 60.4089 20.0628 60.4677 20.2391C60.4971 20.3272 60.5117 20.4006 60.5411 20.4888C60.732 21.2966 60.8202 22.2072 60.8202 23.2647C60.8202 27.2743 59.3368 31.1077 56.649 34.0892C56.5902 34.1627 56.5021 34.2655 56.3993 34.3536C56.0468 34.662 55.6062 34.8383 55.1509 34.8383C54.1228 34.8383 53.2856 34.0011 53.2856 32.973C53.2856 32.5617 53.4178 32.1652 53.6675 31.8421C53.6675 31.8421 53.6675 31.8421 53.6821 31.8274C53.6968 31.8127 53.7115 31.7833 53.7262 31.7686L53.7409 31.7539L53.7556 31.7392L53.785 31.7099C53.8143 31.6658 53.8437 31.6364 53.8731 31.6217C53.9024 31.5924 53.9318 31.563 53.9612 31.5189C56.0027 29.2424 57.1337 26.3049 57.1337 23.25C57.1337 19.96 55.8559 16.8463 53.5353 14.511C53.2562 14.232 52.9625 13.9529 52.654 13.7032C55.2243 12.6311 57.5743 12.0729 59.5864 12.0729ZM47.4841 23.1619C47.4841 24.425 46.456 25.4531 45.1929 25.4531C43.9298 25.4531 42.9017 24.425 42.9017 23.1619C42.9017 21.8988 43.9298 20.8706 45.1929 20.8706C46.456 20.8706 47.4841 21.8988 47.4841 23.1619ZM38.0402 22.9856C38.0402 23.015 38.0402 23.0444 38.0402 23.0737C38.0402 27.0246 41.242 30.2265 45.1929 30.2265C49.1438 30.2265 52.3456 27.0246 52.3456 23.0737C52.3456 19.9307 50.3187 17.2576 47.4988 16.3029C48.4975 15.7154 49.5109 15.172 50.5244 14.6579C51.0678 15.0251 51.5819 15.4657 52.0518 15.9357C53.9906 17.9038 55.0627 20.5035 55.0627 23.2794C55.0627 25.9671 54.0346 28.5227 52.184 30.4761C50.5831 32.1505 48.5416 33.2373 46.2797 33.5898C45.751 33.678 45.1929 33.722 44.6348 33.722C41.947 33.722 39.4061 32.7086 37.482 30.8874L37.3058 30.7111C36.3658 29.7858 35.6314 28.699 35.1027 27.4946C35.088 27.4652 35.088 27.4359 35.0733 27.4065C34.8824 26.9512 34.7061 26.4665 34.574 25.9818C35.2936 25.3062 36.498 24.2487 38.0402 22.9856ZM22.6185 21.091C23.7641 21.091 24.6894 22.0163 24.6894 23.1619C24.6894 24.3075 23.7641 25.2328 22.6185 25.2328C21.4729 25.2328 20.5476 24.3075 20.5476 23.1619C20.5623 22.0163 21.4876 21.091 22.6185 21.091ZM19.6663 19.255C19.7838 19.5928 19.6076 19.96 19.2698 20.0775C18.227 20.43 17.522 21.4141 17.522 22.5156C17.522 22.8534 17.5808 23.1912 17.7129 23.4997C17.8451 23.8228 17.6982 24.2047 17.3604 24.3368C17.287 24.3662 17.1989 24.3809 17.1108 24.3809C16.8464 24.3809 16.6114 24.2193 16.5086 23.9843C16.3176 23.5144 16.2148 23.015 16.2148 22.5009C16.2148 20.8413 17.2723 19.3725 18.8292 18.8438C18.9026 18.8144 18.9614 18.8144 19.0348 18.8144C19.3285 18.8144 19.5782 18.9907 19.6663 19.255ZM19.2257 25.8643C19.2257 26.3049 18.8732 26.6574 18.4326 26.6574C17.992 26.6574 17.6395 26.3049 17.6395 25.8643C17.6395 25.4237 17.992 25.0712 18.4326 25.0712C18.8732 25.0565 19.2257 25.4237 19.2257 25.8643ZM15.8183 14.746C16.817 15.2454 17.8598 15.8182 18.9173 16.4498C16.5233 17.7863 15.0252 20.2978 15.0252 23.0884C15.0252 27.2743 18.4326 30.6818 22.6185 30.6818C24.5278 30.6818 26.3491 29.9768 27.7444 28.6843C28.934 27.5974 29.7418 26.1581 30.0503 24.6012C30.8287 25.2768 31.4309 25.8056 31.8127 26.1581C31.6071 26.8631 31.3428 27.5387 30.9903 28.1849C30.9756 28.1996 30.9756 28.229 30.9609 28.2437C30.4762 29.1396 29.8593 29.9621 29.125 30.6964L28.9487 30.858C27.01 32.6939 24.4691 33.7073 21.7813 33.7073C21.2966 33.7073 20.7973 33.678 20.3126 33.6045C17.9773 33.2814 15.877 32.1946 14.232 30.4761C12.3814 28.5227 11.3533 25.9671 11.3533 23.2794C11.3533 20.5181 12.4255 17.9185 14.3642 15.9504C14.8342 15.4951 15.3042 15.0985 15.8183 14.746ZM60.5264 55.6795C60.3208 57.1777 59.983 58.6611 59.5277 60.1004C59.4102 60.4676 59.2927 60.8348 59.1458 61.246C59.1458 61.2607 59.1311 61.2754 59.1311 61.2754C58.9255 61.8629 58.7052 62.4063 58.4702 62.9351C58.4702 62.9498 58.4555 62.9645 58.4555 62.9645C57.5596 64.9913 56.414 66.9153 55.0334 68.6925C53.6087 70.5431 51.949 72.2174 50.0984 73.6274L35.7636 83.8204C35.0733 84.2023 34.1774 84.4079 33.2668 84.4079C32.2387 84.4079 31.2693 84.1435 30.4468 83.6442L29.8446 83.2182C29.83 83.2182 29.83 83.2035 29.8153 83.2035C29.8006 83.1889 29.7859 83.1742 29.7565 83.1595L16.3617 73.6274C14.4964 72.1881 12.8368 70.5137 11.4121 68.6778C10.0462 66.9006 8.88587 64.9766 7.98994 62.9204C7.75495 62.377 7.51995 61.8188 7.32901 61.2607C7.32901 61.2607 7.32901 61.2607 7.32901 61.246C7.1087 60.6439 6.88839 59.9976 6.68277 59.2779C6.6534 59.1604 6.60934 59.0283 6.57996 58.8961C6.57996 58.8961 6.57996 58.8961 6.57996 58.8814C6.57996 58.8667 6.57996 58.8667 6.56527 58.852C5.96309 56.5755 5.65466 54.2255 5.65466 51.8315C5.65466 48.9968 6.08059 46.1916 6.93246 43.5038C7.47589 41.7854 8.19556 40.111 9.0768 38.5101C9.66429 38.0842 10.0168 37.9373 10.428 37.9373C10.6777 37.9373 10.9862 37.996 11.3974 38.1282C11.9261 38.4954 12.4843 38.8479 13.0571 39.1563C14.3495 39.8613 15.7448 40.4194 17.1989 40.8013C17.7717 41.3741 17.8451 41.6385 17.6542 42.505C15.9651 45.3103 15.0839 48.5415 15.0839 51.8315V51.9049C15.0839 52.3602 15.0986 52.8302 15.1427 53.3149V53.3296C15.9064 62.656 23.8375 69.9703 33.208 69.9703C33.4724 69.9703 33.7515 69.9703 34.0012 69.9556C34.2655 69.9409 34.5446 69.9262 34.7943 69.8969C35.0733 69.8822 35.3818 69.8381 35.7196 69.794C35.8958 69.7647 36.1014 69.7353 36.3218 69.6912C36.4392 69.6765 36.5567 69.6472 36.6596 69.6325C36.7183 69.6178 36.7771 69.6031 36.8211 69.6031H36.8358L36.9386 69.5884C37.0561 69.559 37.1589 69.5444 37.2177 69.5297C37.3205 69.515 37.4086 69.4856 37.482 69.4709C37.6877 69.4269 37.8933 69.3681 38.1577 69.2947C38.3486 69.2506 38.5248 69.1919 38.7598 69.1184C39.8026 68.7806 40.8014 68.3547 41.7267 67.8553C41.8882 67.7672 42.0792 67.6644 42.226 67.5763C42.2407 67.5616 42.2701 67.5469 42.2848 67.5469C42.4464 67.4588 42.6079 67.3559 42.7401 67.2678C43.0779 67.0622 43.4451 66.8125 43.827 66.5481C43.827 66.5481 43.827 66.5481 43.8416 66.5481L44.341 66.181C44.341 66.181 44.341 66.181 44.3557 66.181C44.5026 66.0635 44.6494 65.946 44.7963 65.8285C44.8257 65.7991 44.8551 65.7844 44.8844 65.755C45.0166 65.6522 45.1194 65.5641 45.2076 65.476C45.4719 65.241 45.7216 65.006 45.9419 64.8004C46.2063 64.5507 46.456 64.2863 46.6469 64.0807C46.9554 63.7429 47.2491 63.3904 47.5282 63.0379C47.6457 62.891 47.7485 62.7441 47.8513 62.6119C47.9982 62.421 48.1303 62.2154 48.3066 61.9804C48.4388 61.8041 48.5416 61.6132 48.6591 61.4517C48.806 61.202 48.9381 60.9817 49.0556 60.776C49.1585 60.6145 49.2466 60.4382 49.3641 60.2179L49.4228 60.1004C49.4963 59.9682 49.5403 59.8654 49.5844 59.7773C49.6431 59.6598 49.7019 59.5423 49.7459 59.4248C49.9075 59.087 50.0544 58.7345 50.1866 58.382V58.3673C50.4656 57.6476 50.7006 56.8839 50.8916 56.1055C50.965 55.8117 50.8916 55.5033 50.7006 55.2536C50.5097 55.0186 50.2306 54.8717 49.9222 54.8717H41.0217C40.4636 54.8717 40.0229 55.327 40.0229 55.8705V57.8973C40.0229 57.9708 39.9642 58.0295 39.8908 58.0295H31.1812C30.8581 58.0295 30.5937 57.7651 30.5937 57.442V45.9712C30.5937 45.6481 30.8581 45.3837 31.1812 45.3837H58.9402C59.5864 45.3837 60.1592 45.8391 60.2767 46.4559C60.3649 46.8965 60.4383 47.3225 60.497 47.7778C60.5264 47.9834 60.5558 48.2184 60.5852 48.4387C60.6586 49.0115 60.7174 49.599 60.7467 50.2306L60.7614 50.6712V50.6859C60.7761 50.8327 60.7761 50.9796 60.7761 51.1412C60.7761 51.1412 60.7761 51.1412 60.7761 51.1559C60.7761 51.3615 60.7908 51.5965 60.7908 51.8315C60.7908 53.124 60.7027 54.4164 60.5264 55.6795Z" fill="#073365"/>
</svg>
